<mxfile host="app.diagrams.net" agent="Mozilla/5.0 (Windows NT 10.0; Win64; x64) AppleWebKit/537.36 (KHTML, like Gecko) Chrome/128.0.0.0 Safari/537.36" version="24.7.8">
  <diagram name="Page-1" id="7LJppE1JE4XpLKsh6bBd">
    <mxGraphModel dx="1050" dy="1691" grid="1" gridSize="10" guides="1" tooltips="1" connect="1" arrows="1" fold="1" page="1" pageScale="1" pageWidth="827" pageHeight="1169" math="0" shadow="0">
      <root>
        <mxCell id="0" />
        <mxCell id="1" parent="0" />
        <mxCell id="F_9zOkvMGBa57DA_jnb--44" style="edgeStyle=orthogonalEdgeStyle;rounded=0;orthogonalLoop=1;jettySize=auto;html=1;exitX=0.5;exitY=1;exitDx=0;exitDy=0;entryX=0.5;entryY=0;entryDx=0;entryDy=0;" parent="1" source="F_9zOkvMGBa57DA_jnb--4" target="F_9zOkvMGBa57DA_jnb--43" edge="1">
          <mxGeometry relative="1" as="geometry" />
        </mxCell>
        <mxCell id="F_9zOkvMGBa57DA_jnb--4" value="Manage Profile" style="rounded=1;arcSize=10;whiteSpace=wrap;html=1;align=center;" parent="1" vertex="1">
          <mxGeometry x="350" y="-161" width="100" height="40" as="geometry" />
        </mxCell>
        <mxCell id="F_9zOkvMGBa57DA_jnb--22" style="edgeStyle=orthogonalEdgeStyle;rounded=0;orthogonalLoop=1;jettySize=auto;html=1;exitX=0.5;exitY=1;exitDx=0;exitDy=0;entryX=0.5;entryY=0;entryDx=0;entryDy=0;" parent="1" source="F_9zOkvMGBa57DA_jnb--9" target="F_9zOkvMGBa57DA_jnb--11" edge="1">
          <mxGeometry relative="1" as="geometry" />
        </mxCell>
        <mxCell id="F_9zOkvMGBa57DA_jnb--9" value="Update Profile" style="rounded=1;arcSize=10;whiteSpace=wrap;html=1;align=center;" parent="1" vertex="1">
          <mxGeometry x="230" y="40" width="100" height="40" as="geometry" />
        </mxCell>
        <mxCell id="F_9zOkvMGBa57DA_jnb--36" style="edgeStyle=orthogonalEdgeStyle;rounded=0;orthogonalLoop=1;jettySize=auto;html=1;exitX=0.5;exitY=1;exitDx=0;exitDy=0;entryX=0.5;entryY=0;entryDx=0;entryDy=0;" parent="1" source="F_9zOkvMGBa57DA_jnb--10" edge="1">
          <mxGeometry relative="1" as="geometry">
            <mxPoint x="600" y="100" as="targetPoint" />
          </mxGeometry>
        </mxCell>
        <mxCell id="F_9zOkvMGBa57DA_jnb--10" value="Security" style="rounded=1;arcSize=10;whiteSpace=wrap;html=1;align=center;" parent="1" vertex="1">
          <mxGeometry x="550" y="40" width="100" height="40" as="geometry" />
        </mxCell>
        <mxCell id="F_9zOkvMGBa57DA_jnb--51" style="edgeStyle=orthogonalEdgeStyle;rounded=0;orthogonalLoop=1;jettySize=auto;html=1;exitX=0.5;exitY=1;exitDx=0;exitDy=0;" parent="1" source="F_9zOkvMGBa57DA_jnb--11" edge="1">
          <mxGeometry relative="1" as="geometry">
            <mxPoint x="360" y="330" as="targetPoint" />
            <Array as="points">
              <mxPoint x="280" y="290" />
              <mxPoint x="360" y="290" />
            </Array>
            <mxPoint x="280" y="200" as="sourcePoint" />
          </mxGeometry>
        </mxCell>
        <mxCell id="F_9zOkvMGBa57DA_jnb--11" value="Manage Connected Accounts" style="rounded=1;arcSize=10;whiteSpace=wrap;html=1;align=center;" parent="1" vertex="1">
          <mxGeometry x="160" y="110" width="240" height="40" as="geometry" />
        </mxCell>
        <mxCell id="F_9zOkvMGBa57DA_jnb--30" style="edgeStyle=orthogonalEdgeStyle;rounded=0;orthogonalLoop=1;jettySize=auto;html=1;exitX=1;exitY=0.5;exitDx=0;exitDy=0;" parent="1" source="F_9zOkvMGBa57DA_jnb--16" edge="1">
          <mxGeometry relative="1" as="geometry">
            <mxPoint x="581" y="276" as="targetPoint" />
          </mxGeometry>
        </mxCell>
        <mxCell id="F_9zOkvMGBa57DA_jnb--16" value="Manage Active Devices" style="rounded=1;arcSize=10;whiteSpace=wrap;html=1;align=center;" parent="1" vertex="1">
          <mxGeometry x="370" y="165" width="141" height="40" as="geometry" />
        </mxCell>
        <mxCell id="F_9zOkvMGBa57DA_jnb--50" style="edgeStyle=orthogonalEdgeStyle;rounded=0;orthogonalLoop=1;jettySize=auto;html=1;exitX=0;exitY=0.5;exitDx=0;exitDy=0;" parent="1" source="F_9zOkvMGBa57DA_jnb--17" edge="1">
          <mxGeometry relative="1" as="geometry">
            <mxPoint x="621" y="276" as="targetPoint" />
            <Array as="points">
              <mxPoint x="621" y="185" />
              <mxPoint x="621" y="276" />
            </Array>
          </mxGeometry>
        </mxCell>
        <mxCell id="F_9zOkvMGBa57DA_jnb--17" value="Delete Account" style="rounded=1;arcSize=10;whiteSpace=wrap;html=1;align=center;" parent="1" vertex="1">
          <mxGeometry x="641" y="165" width="109" height="40" as="geometry" />
        </mxCell>
        <mxCell id="F_9zOkvMGBa57DA_jnb--19" value="" style="line;strokeWidth=13;rotatable=0;dashed=0;labelPosition=right;align=left;verticalAlign=middle;spacingTop=0;spacingLeft=6;points=[];portConstraint=eastwest;" parent="1" vertex="1">
          <mxGeometry x="319.5" y="330" width="160" height="10" as="geometry" />
        </mxCell>
        <mxCell id="F_9zOkvMGBa57DA_jnb--55" style="edgeStyle=orthogonalEdgeStyle;rounded=0;orthogonalLoop=1;jettySize=auto;html=1;exitX=0.5;exitY=1;exitDx=0;exitDy=0;entryX=0.5;entryY=0;entryDx=0;entryDy=0;" parent="1" source="F_9zOkvMGBa57DA_jnb--20" target="F_9zOkvMGBa57DA_jnb--54" edge="1">
          <mxGeometry relative="1" as="geometry" />
        </mxCell>
        <mxCell id="F_9zOkvMGBa57DA_jnb--20" value="Change Theme" style="rounded=1;arcSize=10;whiteSpace=wrap;html=1;align=center;" parent="1" vertex="1">
          <mxGeometry x="319.5" y="364" width="160" height="40" as="geometry" />
        </mxCell>
        <mxCell id="F_9zOkvMGBa57DA_jnb--24" value="Account Settings" style="rhombus;whiteSpace=wrap;html=1;fontColor=#000000;fillColor=#FFFFFF;strokeColor=#000000;" parent="1" vertex="1">
          <mxGeometry x="319" y="-40" width="160" height="60" as="geometry" />
        </mxCell>
        <mxCell id="F_9zOkvMGBa57DA_jnb--25" value="no" style="edgeStyle=orthogonalEdgeStyle;html=1;align=left;verticalAlign=bottom;endArrow=open;endSize=8;strokeColor=#000000;rounded=0;entryX=0.5;entryY=0;entryDx=0;entryDy=0;" parent="1" source="F_9zOkvMGBa57DA_jnb--24" target="F_9zOkvMGBa57DA_jnb--10" edge="1">
          <mxGeometry x="-1" relative="1" as="geometry">
            <mxPoint x="370" y="270" as="targetPoint" />
          </mxGeometry>
        </mxCell>
        <mxCell id="F_9zOkvMGBa57DA_jnb--26" value="yes" style="edgeStyle=orthogonalEdgeStyle;html=1;align=left;verticalAlign=top;endArrow=open;endSize=8;strokeColor=#000000;rounded=0;entryX=0.5;entryY=0;entryDx=0;entryDy=0;exitX=0;exitY=0.5;exitDx=0;exitDy=0;" parent="1" source="F_9zOkvMGBa57DA_jnb--24" target="F_9zOkvMGBa57DA_jnb--9" edge="1">
          <mxGeometry x="-1" relative="1" as="geometry">
            <mxPoint x="230" y="350" as="targetPoint" />
          </mxGeometry>
        </mxCell>
        <mxCell id="F_9zOkvMGBa57DA_jnb--34" value="" style="endArrow=classic;html=1;rounded=0;entryX=0.5;entryY=0;entryDx=0;entryDy=0;" parent="1" source="F_9zOkvMGBa57DA_jnb--19" target="F_9zOkvMGBa57DA_jnb--20" edge="1">
          <mxGeometry width="50" height="50" relative="1" as="geometry">
            <mxPoint x="299.5" y="334" as="sourcePoint" />
            <mxPoint x="349.5" y="284" as="targetPoint" />
          </mxGeometry>
        </mxCell>
        <mxCell id="F_9zOkvMGBa57DA_jnb--40" value="" style="line;strokeWidth=13;rotatable=0;dashed=0;labelPosition=right;align=left;verticalAlign=middle;spacingTop=0;spacingLeft=6;points=[];portConstraint=eastwest;" parent="1" vertex="1">
          <mxGeometry x="520" y="279" width="160" height="10" as="geometry" />
        </mxCell>
        <mxCell id="F_9zOkvMGBa57DA_jnb--41" value="" style="endArrow=classic;html=1;rounded=0;" parent="1" edge="1">
          <mxGeometry width="50" height="50" relative="1" as="geometry">
            <mxPoint x="600" y="290" as="sourcePoint" />
            <mxPoint x="440" y="330" as="targetPoint" />
            <Array as="points">
              <mxPoint x="600" y="304" />
              <mxPoint x="440" y="304" />
            </Array>
          </mxGeometry>
        </mxCell>
        <mxCell id="F_9zOkvMGBa57DA_jnb--45" style="edgeStyle=orthogonalEdgeStyle;rounded=0;orthogonalLoop=1;jettySize=auto;html=1;exitX=0.5;exitY=1;exitDx=0;exitDy=0;entryX=0.5;entryY=0;entryDx=0;entryDy=0;" parent="1" source="F_9zOkvMGBa57DA_jnb--43" target="F_9zOkvMGBa57DA_jnb--24" edge="1">
          <mxGeometry relative="1" as="geometry" />
        </mxCell>
        <mxCell id="F_9zOkvMGBa57DA_jnb--43" value="Modify Account Setting?" style="rounded=1;arcSize=10;whiteSpace=wrap;html=1;align=center;" parent="1" vertex="1">
          <mxGeometry x="325.5" y="-100" width="150" height="40" as="geometry" />
        </mxCell>
        <mxCell id="F_9zOkvMGBa57DA_jnb--46" value="Account Settings" style="rhombus;whiteSpace=wrap;html=1;fontColor=#000000;fillColor=#FFFFFF;strokeColor=#000000;" parent="1" vertex="1">
          <mxGeometry x="521" y="100" width="160" height="60" as="geometry" />
        </mxCell>
        <mxCell id="F_9zOkvMGBa57DA_jnb--47" value="no" style="edgeStyle=orthogonalEdgeStyle;html=1;align=left;verticalAlign=bottom;endArrow=open;endSize=8;strokeColor=#000000;rounded=0;entryX=0.5;entryY=0;entryDx=0;entryDy=0;" parent="1" source="F_9zOkvMGBa57DA_jnb--46" target="F_9zOkvMGBa57DA_jnb--17" edge="1">
          <mxGeometry x="-1" relative="1" as="geometry">
            <mxPoint x="761" y="176" as="targetPoint" />
            <Array as="points">
              <mxPoint x="695" y="130" />
            </Array>
          </mxGeometry>
        </mxCell>
        <mxCell id="F_9zOkvMGBa57DA_jnb--48" value="yes" style="edgeStyle=orthogonalEdgeStyle;html=1;align=left;verticalAlign=top;endArrow=open;endSize=8;strokeColor=#000000;rounded=0;entryX=0.5;entryY=0;entryDx=0;entryDy=0;" parent="1" source="F_9zOkvMGBa57DA_jnb--46" target="F_9zOkvMGBa57DA_jnb--16" edge="1">
          <mxGeometry x="-1" relative="1" as="geometry">
            <mxPoint x="415" y="186" as="targetPoint" />
            <Array as="points">
              <mxPoint x="441" y="130" />
            </Array>
          </mxGeometry>
        </mxCell>
        <mxCell id="F_9zOkvMGBa57DA_jnb--57" style="edgeStyle=orthogonalEdgeStyle;rounded=0;orthogonalLoop=1;jettySize=auto;html=1;exitX=0.5;exitY=1;exitDx=0;exitDy=0;entryX=0.5;entryY=0;entryDx=0;entryDy=0;" parent="1" source="F_9zOkvMGBa57DA_jnb--54" target="F_9zOkvMGBa57DA_jnb--56" edge="1">
          <mxGeometry relative="1" as="geometry" />
        </mxCell>
        <mxCell id="F_9zOkvMGBa57DA_jnb--54" value="Sign Out" style="rounded=1;arcSize=10;whiteSpace=wrap;html=1;align=center;" parent="1" vertex="1">
          <mxGeometry x="320.5" y="430" width="160" height="40" as="geometry" />
        </mxCell>
        <mxCell id="F_9zOkvMGBa57DA_jnb--56" value="" style="ellipse;html=1;shape=endState;fillColor=#000000;strokeColor=#000000;" parent="1" vertex="1">
          <mxGeometry x="384.5" y="490" width="30" height="30" as="geometry" />
        </mxCell>
        <mxCell id="L7xj7GNVBIBwlnCZehAI-1" value="" style="ellipse;html=1;shape=startState;fillColor=#000000;strokeColor=#000000;" vertex="1" parent="1">
          <mxGeometry x="384" y="-251" width="30" height="30" as="geometry" />
        </mxCell>
        <mxCell id="L7xj7GNVBIBwlnCZehAI-2" value="" style="edgeStyle=orthogonalEdgeStyle;html=1;verticalAlign=bottom;endArrow=open;endSize=8;strokeColor=#000000;rounded=0;" edge="1" source="L7xj7GNVBIBwlnCZehAI-1" parent="1">
          <mxGeometry relative="1" as="geometry">
            <mxPoint x="399" y="-161" as="targetPoint" />
          </mxGeometry>
        </mxCell>
      </root>
    </mxGraphModel>
  </diagram>
</mxfile>
